<svg width="20" height="21" viewBox="0 0 20 21" fill="none" xmlns="http://www.w3.org/2000/svg">
<g id="Group 14">
<g id="Group 12">
<path id="Vector 13" d="M4.77323 3.91791C4.3575 5.34502 4.92107 8.59014 5.25483 10.0343L9.79252 10.239C9.79252 10.239 10.0053 9.86499 10.2902 8.1456C10.5751 6.42622 10.6396 6.66101 10.2382 3.36287C10.0102 1.48901 8.78183 1.04898 7.87376 0.730462C6.96568 0.411939 5.29289 2.13401 4.77323 3.91791Z" fill="black" stroke="black"/>
<path id="Vector 14" d="M7.83109 16.0121C5.41445 16.2218 5.2529 13.2912 5.47421 11.7996L9.61587 11.482C10.0279 12.9047 10.2477 15.8024 7.83109 16.0121Z" fill="black" stroke="black"/>
</g>
<g id="Group 13">
<path id="Vector 13_2" d="M19.327 10.5952C18.9827 12.0412 16.8882 14.5832 15.8841 15.6735L11.8387 13.6077C11.8387 13.6077 11.8387 13.1774 12.4412 11.542C13.0437 9.90666 12.8715 10.0789 14.8512 7.41057C15.976 5.89456 17.2612 6.11946 18.208 6.2916C19.1548 6.46374 19.7573 8.78769 19.327 10.5952Z" fill="black" stroke="black"/>
<path id="Vector 14_2" d="M10.689 19.5954C12.6859 20.9726 14.2754 18.5052 14.8205 17.0993L11.3776 14.7754C10.316 15.8083 8.69215 18.2183 10.689 19.5954Z" fill="black" stroke="black"/>
</g>
</g>
</svg>
