<svg width="25" height="25" viewBox="0 0 67 54" fill="none" xmlns="http://www.w3.org/2000/svg">
<path d="M66.5811 0.0736491C66.3696 0 66.1581 0 65.9114 0L48.3585 0V0.0368245L37.7492 0.0368245C27.8097 0.40507 20.3021 2.98279 15.2971 7.69633C15.0504 7.91727 14.8389 8.13822 14.5921 8.35917C11.7724 11.2683 9.83384 14.9139 8.70594 19.2961L0 53.9848H18.2931H28.9023C38.8066 53.6165 46.2789 51.0756 51.284 46.3621C51.5307 46.1411 51.7422 45.9202 51.9889 45.6992C54.8439 42.7901 56.8177 39.1076 57.9104 34.6887L66.6516 0.0368245C66.6163 0.0736491 66.6163 0.0736491 66.5811 0.0736491ZM40.6395 30.0488C40.005 32.5529 38.8419 34.6519 37.1853 36.309C36.9738 36.5299 36.7271 36.7877 36.4804 36.9718C36.3394 37.0823 36.1984 37.1928 36.0574 37.3032C34.1188 38.8499 31.863 39.7337 29.3253 39.9546H21.8177L26.0121 24.0096C26.6465 21.5423 27.7744 19.4802 29.3958 17.8231C29.6072 17.6021 29.854 17.3444 30.1007 17.1602C30.2417 17.0129 30.4179 16.8656 30.5942 16.7552C32.5327 15.2085 34.7885 14.3247 37.3263 14.1038H44.8691L40.6395 30.0488Z" fill="#84C551"/>
</svg>
